<svg width="1920" height="824" viewBox="0 0 1920 824" fill="none" xmlns="http://www.w3.org/2000/svg">
<path d="M388 397.5C217.2 397.5 70.8333 472.168 12.5 518.501H0.5V824.001H1924L1921.5 127.5L1909.5 141.5C1896.67 176.667 1858.59 223.838 1819 268.5C1741 356.5 1672 379.5 1552.5 413C1463.73 437.886 1217 426.668 1094 422.501C934.167 408.168 558.8 397.5 388 397.5Z" fill="#C7D9E7"/>
<path fill-rule="evenodd" clip-rule="evenodd" d="M1742.52 50C1742.52 50 1720.34 58.284 1709.64 130.891C1704.13 168.335 1707.39 191.452 1718.09 198.941C1722.08 200.247 1748.55 179.73 1750.17 168.66C1752.11 157.265 1757 120.798 1757 120.798C1757 120.798 1727.8 80.3777 1742.52 50Z" fill="url(#paint0_radial_584_585)"/>
<path fill-rule="evenodd" clip-rule="evenodd" d="M1742.52 50C1742.52 50 1720.34 58.284 1709.64 130.891C1704.13 168.335 1707.39 191.452 1718.09 198.941C1722.08 200.247 1748.55 179.73 1750.17 168.66C1752.11 157.265 1757 120.798 1757 120.798C1757 120.798 1727.8 80.3777 1742.52 50Z" fill="black" fill-opacity="0.3"/>
<path fill-rule="evenodd" clip-rule="evenodd" d="M1718.52 199.252C1718.52 199.252 1757.65 203.833 1765.5 166.22C1773.35 130.569 1754.05 83.47 1729.52 62.5373C1705.97 42.9128 1666.07 27.5403 1631.07 50.1085C1607.85 65.1539 1609.16 98.8426 1609.49 101.786C1609.49 101.786 1606.87 66.7892 1647.75 63.5185C1688.96 60.2478 1712.51 101.786 1720.36 126.317C1728.21 151.829 1729.97 197.289 1718.52 199.252Z" fill="url(#paint1_radial_584_585)"/>
<path fill-rule="evenodd" clip-rule="evenodd" d="M1905 64C1905 64 1890.24 34.9661 1849.23 27.7892C1799.04 18.9812 1763.28 38.5336 1739 61.6955C1739 61.6955 1742.94 7.56338 1812.82 0.386464C1825.94 -1.57088 1873.18 1.69136 1905 64Z" fill="url(#paint2_radial_584_585)"/>
<path fill-rule="evenodd" clip-rule="evenodd" d="M1848.42 6C1926.27 50.144 1912.48 135.105 1858.84 215.546C1774.13 342.092 1658.34 396.174 1513.12 417.755C1160.21 470.401 242.362 263.613 0 497.74V542C231.896 285.638 1170.68 487.065 1509.52 425.591C1636.43 402.701 1731.28 362.154 1824.17 267.98C1897.11 193.753 1944.53 145.242 1908.88 65.4561C1898.09 41.2586 1874.59 16.7907 1848.42 6Z" fill="url(#paint3_linear_584_585)"/>
<path fill-rule="evenodd" clip-rule="evenodd" d="M1719.93 298C1719.93 298 1730.82 345.869 1711.36 349.476C1692.22 352.754 1689.58 338 1689.58 338C1689.58 338 1672.09 359.639 1678.36 379.967C1678.36 379.967 1683.31 395.049 1703.11 391.443C1715.32 389.476 1722.9 378 1725.87 368.492C1729.17 359.312 1732.8 315.049 1719.93 298Z" fill="url(#paint4_radial_584_585)"/>
<path fill-rule="evenodd" clip-rule="evenodd" d="M1719.93 298C1719.93 298 1730.82 345.869 1711.36 349.476C1692.22 352.754 1689.58 338 1689.58 338C1689.58 338 1672.09 359.639 1678.36 379.967C1678.36 379.967 1683.31 395.049 1703.11 391.443C1715.32 389.476 1722.9 378 1725.87 368.492C1729.17 359.312 1732.8 315.049 1719.93 298Z" fill="black" fill-opacity="0.2"/>
<path fill-rule="evenodd" clip-rule="evenodd" d="M1708 323C1708 323 1678.14 354.173 1681.39 371.707C1685.61 396.061 1704.43 390.866 1704.43 390.866C1704.43 390.866 1689.5 396.386 1678.79 383.072C1666.78 367.811 1671.65 341.509 1685.93 330.793C1691.77 326.572 1708 323 1708 323Z" fill="url(#paint5_linear_584_585)"/>
<path fill-rule="evenodd" clip-rule="evenodd" d="M1613.14 75C1613.14 75 1593.18 113.314 1620.01 181.756C1637.02 224.327 1668.42 254.127 1687.39 278.688C1702.11 297.026 1731.07 337.96 1724.2 373C1724.2 373 1743.33 312.418 1738.09 282.945C1732.86 253.473 1716.18 228.585 1683.79 200.749C1651.41 172.914 1600.05 122.811 1613.14 75Z" fill="url(#paint6_radial_584_585)"/>
<defs>
<radialGradient id="paint0_radial_584_585" cx="0" cy="0" r="1" gradientUnits="userSpaceOnUse" gradientTransform="translate(1730.11 115.144) rotate(-105.847) scale(167.145 68.4716)">
<stop stop-color="#B94406"/>
<stop offset="0.4" stop-color="#F28B00"/>
<stop offset="0.61" stop-color="#FFD800"/>
<stop offset="0.84" stop-color="#DC8100"/>
<stop offset="1" stop-color="#BD2B09"/>
</radialGradient>
<radialGradient id="paint1_radial_584_585" cx="0" cy="0" r="1" gradientUnits="userSpaceOnUse" gradientTransform="translate(1761.82 240.902) rotate(-125.965) scale(276.657 255.926)">
<stop stop-color="#B94406"/>
<stop offset="0.4" stop-color="#F28B00"/>
<stop offset="0.61" stop-color="#FFD800"/>
<stop offset="0.84" stop-color="#DC8100"/>
<stop offset="1" stop-color="#BD2B09"/>
</radialGradient>
<radialGradient id="paint2_radial_584_585" cx="0" cy="0" r="1" gradientUnits="userSpaceOnUse" gradientTransform="translate(1927.61 118.867) rotate(-134.892) scale(311.772 299.4)">
<stop stop-color="#B94406"/>
<stop offset="0.4" stop-color="#F28B00"/>
<stop offset="0.61" stop-color="#FFD800"/>
<stop offset="0.84" stop-color="#DC8100"/>
<stop offset="1" stop-color="#BD2B09"/>
</radialGradient>
<linearGradient id="paint3_linear_584_585" x1="-9.75619" y1="274.15" x2="1878.55" y2="274.15" gradientUnits="userSpaceOnUse">
<stop stop-color="white"/>
<stop offset="0.18" stop-color="#7A8890"/>
<stop offset="0.41" stop-color="#B6CBD7"/>
<stop offset="0.78" stop-color="#717E85"/>
<stop offset="1" stop-color="#485155"/>
</linearGradient>
<radialGradient id="paint4_radial_584_585" cx="0" cy="0" r="1" gradientUnits="userSpaceOnUse" gradientTransform="translate(1695.91 333.649) rotate(77.8296) scale(100.646 63.7045)">
<stop stop-color="#B94406"/>
<stop offset="0.4" stop-color="#F28B00"/>
<stop offset="0.61" stop-color="#FFD800"/>
<stop offset="0.84" stop-color="#DC8100"/>
<stop offset="1" stop-color="#BD2B09"/>
</radialGradient>
<linearGradient id="paint5_linear_584_585" x1="1695.99" y1="376.565" x2="1664.47" y2="349.027" gradientUnits="userSpaceOnUse">
<stop stop-color="#B94406"/>
<stop offset="0.4" stop-color="#F28B00"/>
<stop offset="0.61" stop-color="#FFD800"/>
<stop offset="0.84" stop-color="#DC8100"/>
<stop offset="1" stop-color="#BD2B09"/>
</linearGradient>
<radialGradient id="paint6_radial_584_585" cx="0" cy="0" r="1" gradientUnits="userSpaceOnUse" gradientTransform="translate(1667.48 205.288) rotate(-131.772) scale(250.773 132.702)">
<stop stop-color="#B94406"/>
<stop offset="0.4" stop-color="#F28B00"/>
<stop offset="0.61" stop-color="#FFD800"/>
<stop offset="0.84" stop-color="#DC8100"/>
<stop offset="1" stop-color="#BD2B09"/>
</radialGradient>
</defs>
</svg>
