<svg width="24" height="24" viewBox="0 0 24 24" fill="none" xmlns="http://www.w3.org/2000/svg">
<path d="M6.24 -0.000976562C5.44608 -0.000976562 4.8 0.645103 4.8 1.43902V11.519H14.6541L10.2469 7.1109C10.0592 6.92322 10.0592 6.61983 10.2469 6.43215C10.4346 6.24447 10.7379 6.24447 10.9256 6.43215L16.4916 11.999L10.9247 17.5659C10.8311 17.6595 10.7082 17.7065 10.5853 17.7065C10.4624 17.7065 10.3395 17.6595 10.2459 17.5659C10.0583 17.3782 10.0583 17.0748 10.2459 16.8871L14.6541 12.479H4.8V22.559C4.8 23.3529 5.44608 23.999 6.24 23.999H22.56C23.3539 23.999 24 23.3529 24 22.559V1.43902C24 0.645103 23.3539 -0.000976562 22.56 -0.000976562H6.24ZM4.8 12.479V11.519H0.48C0.21504 11.519 0 11.7341 0 11.999C0 12.264 0.21504 12.479 0.48 12.479H4.8Z" fill="black"/>
</svg>
