<svg width="24" height="24" viewBox="0 0 24 31" fill="none" xmlns="http://www.w3.org/2000/svg">
<path d="M12.821 0.640015C6.42745 0.640015 2.7598 4.27496 2.7598 10.6238C2.7598 10.8926 2.7922 11.2517 2.8498 11.6613C2.8818 11.8661 2.9139 12.0773 2.9523 12.3013C2.9715 12.4165 2.99685 12.5311 3.01605 12.6463C3.06085 12.8703 3.105 13.0946 3.1498 13.325C3.2138 13.6066 3.2719 13.8812 3.3423 14.15C3.6687 14.0924 3.92465 14.08 4.09105 14.08C4.30225 14.08 4.4809 14.0991 4.6473 14.1375C4.8265 14.1759 4.9865 14.2342 5.1273 14.3238C5.5753 14.599 5.7745 15.014 5.9473 15.3788L6.0048 15.5013C6.3184 14.8357 6.491 14.0032 6.5998 13.44C7.003 11.4432 9.1982 10.88 12.3598 10.88C15.3358 10.88 17.0063 9.50456 17.7935 8.56376C18.4207 9.55576 19.3998 11.4431 19.3998 13.4463C19.4126 14.5215 19.8221 16.2949 21.2685 16.4613C21.5245 16.6533 22.0434 17.1515 21.941 17.9963C21.717 19.9163 20.3149 20.4483 20.2573 20.4675C20.0205 20.5507 19.8541 20.7618 19.8285 21.005C19.6813 22.381 18.2221 25.2988 16.0973 26.95V26.9563C16.1613 27.1547 16.1873 27.3734 16.1873 27.6038C16.1937 27.847 16.1998 28.1148 16.1998 28.39V28.4413C18.9198 26.7453 20.6736 23.3532 21.0448 21.51C21.6912 21.1644 22.9716 20.2236 23.2148 18.15C23.3684 16.8636 22.7084 16.0262 22.2348 15.6038C22.2412 15.5846 22.2484 15.558 22.2548 15.5388C22.3188 15.334 22.3759 15.1297 22.4335 14.9313C22.4591 14.8481 22.4843 14.7582 22.5035 14.675C22.5611 14.451 22.6186 14.234 22.6698 14.01C22.7274 13.7796 22.7851 13.5429 22.8235 13.3125C22.8491 13.2293 22.862 13.152 22.8748 13.0688C22.9196 12.8704 22.9515 12.672 22.9835 12.48C23.0411 12.1472 23.0928 11.8214 23.1248 11.495C23.144 11.3286 23.1632 11.1675 23.176 11.0075C23.1952 10.7835 23.2146 10.5601 23.221 10.3425C23.2338 10.0929 23.2398 9.84321 23.2398 9.60001C23.2398 9.36801 23.2306 9.13453 23.2123 8.90126C23.0839 7.26843 22.5031 5.64201 21.4223 4.55001C21.3647 4.48601 21.3 4.42261 21.236 4.36501C21.1336 4.26901 21.0187 4.17961 20.9035 4.09001C20.8011 4.01321 20.6987 3.94276 20.5835 3.87876C20.5259 3.83396 20.4627 3.79576 20.3923 3.76376C20.2899 3.70616 20.1811 3.64856 20.0723 3.60376C19.9315 3.53976 19.7771 3.48121 19.6235 3.43001C19.4507 3.37241 19.2655 3.32201 19.0735 3.29001C18.8879 3.25161 18.6896 3.22531 18.4848 3.21251C17.8896 2.33571 16.2962 0.640015 12.821 0.640015ZM4.09105 15.36C3.96945 15.36 3.8223 15.3669 3.6623 15.3925C3.3807 15.4309 3.04195 15.507 2.68355 15.635C1.81315 15.9486 1.0186 17.4592 0.909797 18.1888C0.813797 18.8352 0.775696 19.6612 1.0573 20.57C1.2301 21.114 1.4608 21.8176 1.8448 22.72C3.464 26.5152 7.23395 28.9855 7.48355 29.1775C7.73315 29.3631 9.5055 30.72 11.3423 30.72C12.4687 30.72 13.2428 30.355 13.7548 29.9838C14.0812 29.7598 14.3115 29.5294 14.4523 29.395C14.8235 29.0494 14.9198 28.6396 14.9198 28.39C14.9198 28.1468 14.9137 27.91 14.9073 27.6988V27.6675C14.8945 27.4307 14.9905 27.1235 14.2673 26.8163C13.5185 26.5027 11.6816 25.7473 11.496 25.6513C11.3808 25.5937 11.2592 25.5488 11.1248 25.5488C11.0352 25.5488 10.9395 25.5676 10.8435 25.6188C10.5939 25.7468 10.4336 25.8043 10.216 25.9963C9.99845 26.1883 9.72995 26.3935 9.56355 26.5663L9.49855 26.63C9.38975 26.7324 9.26855 26.8288 9.10855 26.8288C9.01895 26.8288 8.92265 26.7967 8.80105 26.7263C8.43625 26.5151 7.259 25.7857 6.2798 24.6913C6.2542 24.6721 6.23525 24.6467 6.21605 24.6275C4.94885 23.1875 4.55165 21.9651 4.36605 21.5875C4.25725 21.3635 4.22515 21.1971 4.26355 21.0563V21.05C4.28275 20.986 4.31485 20.9214 4.36605 20.8638C4.39805 20.8318 4.4239 20.7995 4.4623 20.7675C4.5903 20.6523 4.884 20.3971 5.1848 20.1475C5.4664 19.9171 5.74185 19.6929 5.92105 19.5713C5.99785 19.5201 6.06265 19.4689 6.10105 19.4113C6.13305 19.3729 6.15185 19.3409 6.17105 19.3025C6.21585 19.1873 6.2093 19.0719 6.1773 18.9375C6.1645 18.8671 6.1393 18.7968 6.1073 18.72C6.0113 18.4448 5.42885 17.2411 5.09605 16.5563C5.03845 16.4347 4.98695 16.3268 4.94855 16.25C4.92935 16.2052 4.9101 16.1669 4.8973 16.1413C4.7053 15.7637 4.6159 15.5071 4.4623 15.4175C4.4495 15.4111 4.4304 15.3989 4.4048 15.3925C4.36 15.3797 4.29535 15.3727 4.21855 15.3663C4.18015 15.3599 4.13585 15.36 4.09105 15.36ZM9.4798 16.64C8.9486 16.64 8.5198 17.0688 8.5198 17.6C8.5198 18.1312 8.9486 18.56 9.4798 18.56C10.011 18.56 10.4398 18.1312 10.4398 17.6C10.4398 17.0688 10.011 16.64 9.4798 16.64ZM16.5198 16.64C15.9886 16.64 15.5598 17.0688 15.5598 17.6C15.5598 18.1312 15.9886 18.56 16.5198 18.56C17.051 18.56 17.4798 18.1312 17.4798 17.6C17.4798 17.0688 17.051 16.64 16.5198 16.64Z" fill="#EF7F1A"/>
</svg>
