<svg width="660" height="350" viewBox="0 0 660 350" fill="none" xmlns="http://www.w3.org/2000/svg">
<g clip-path="url(#clip0_423_419)">
<g filter="url(#filter0_bi_423_419)">
<path d="M0 9C0 3.47715 4.47715 -1 10 -1H650C655.523 -1 660 3.47715 660 9V339C660 344.523 655.523 349 650 349H9.99999C4.47714 349 0 344.523 0 339V9Z" fill="#F1F1F1" fill-opacity="0.1"/>
<path d="M0 9C0 3.47715 4.47715 -1 10 -1H650C655.523 -1 660 3.47715 660 9V339C660 344.523 655.523 349 650 349H9.99999C4.47714 349 0 344.523 0 339V9Z" fill="url(#paint0_linear_423_419)" fill-opacity="0.2"/>
</g>
</g>
<defs>
<filter id="filter0_bi_423_419" x="-18.75" y="-19.75" width="697.5" height="387.5" filterUnits="userSpaceOnUse" color-interpolation-filters="sRGB">
<feFlood flood-opacity="0" result="BackgroundImageFix"/>
<feGaussianBlur in="BackgroundImage" stdDeviation="9.375"/>
<feComposite in2="SourceAlpha" operator="in" result="effect1_backgroundBlur_423_419"/>
<feBlend mode="normal" in="SourceGraphic" in2="effect1_backgroundBlur_423_419" result="shape"/>
<feColorMatrix in="SourceAlpha" type="matrix" values="0 0 0 0 0 0 0 0 0 0 0 0 0 0 0 0 0 0 127 0" result="hardAlpha"/>
<feOffset dy="3.125"/>
<feGaussianBlur stdDeviation="6.25"/>
<feComposite in2="hardAlpha" operator="arithmetic" k2="-1" k3="1"/>
<feColorMatrix type="matrix" values="0 0 0 0 1 0 0 0 0 1 0 0 0 0 1 0 0 0 0.4 0"/>
<feBlend mode="normal" in2="shape" result="effect2_innerShadow_423_419"/>
</filter>
<linearGradient id="paint0_linear_423_419" x1="0" y1="-1" x2="673.236" y2="321.357" gradientUnits="userSpaceOnUse">
<stop stop-color="#B9CAD6"/>
<stop offset="1" stop-color="#E8EAEE"/>
</linearGradient>
<clipPath id="clip0_423_419">
<rect width="659" height="348" fill="white"/>
</clipPath>
</defs>
</svg>
